# xmcd
#
# Track frame offsets:
# 150
# 11752
# 31699
# 50186
# 74711
# 95514
# 111267
# 134167
# 137688
# 157287
# 171688
#
# Disc length: 2662 seconds
#
# Revision: 0
# Processed by: cddbd v1.5.2PL0 Copyright (c) Steve Scherf et al.
# Submitted via: Audion 3.0.2 (http://www.panic.com/audion/)
#
DISCID=b00a640b
DTITLE=none - soom
DYEAR=1900
DGENRE=
TTITLE0=Nate King Cole - Love
TTITLE1=Chris Bodie jazz
TTITLE2=Destiny Child - Catered to You
TTITLE3=Outcast - Prototype
TTITLE4=Myra Andrade - Mana
TTITLE5=John Legend - You Are
TTITLE6=Sting - What Are you doing
TTITLE7=John Legend - Good Morning
TTITLE8=Elliot Yamin - Wait for you
TTITLE9=Michael Buble - Let There Be Love
TTITLE10=Jill Scott - Good Morning Heartache
EXTD=
EXTT0=
EXTT1=
EXTT2=
EXTT3=
EXTT4=
EXTT5=
EXTT6=
EXTT7=
EXTT8=
EXTT9=
EXTT10=
PLAYORDER=
